<?xml version="1.0" standalone="no"?>
<!DOCTYPE svg PUBLIC "-//W3C//DTD SVG 20010904//EN"
 "http://www.w3.org/TR/2001/REC-SVG-20010904/DTD/svg10.dtd">
<svg version="1.0" xmlns="http://www.w3.org/2000/svg"
 width="512.000000pt" height="512.000000pt" viewBox="0 0 512.000000 512.000000"
 preserveAspectRatio="xMidYMid meet">
<metadata>
Created by potrace 1.14, written by Peter Selinger 2001-2017
</metadata>
<g transform="translate(0.000000,512.000000) scale(0.100000,-0.100000)"
fill="#000000" stroke="none">
<path d="M324 4261 c-2 -2 0 -9 5 -15 5 -6 19 -29 31 -51 12 -22 110 -191 218
-375 107 -184 203 -348 212 -365 9 -16 36 -60 58 -98 23 -37 42 -70 42 -72 0
-3 11 -22 24 -43 13 -20 49 -82 81 -137 70 -121 183 -314 195 -335 56 -94 76
-128 85 -145 7 -11 45 -76 85 -145 112 -191 163 -278 186 -318 11 -21 67 -116
123 -212 57 -96 113 -193 126 -215 42 -74 635 -1090 644 -1105 6 -8 34 -57 63
-107 62 -109 48 -116 154 70 95 164 92 160 159 272 33 55 65 111 72 125 7 14
21 39 31 55 11 17 52 86 92 155 40 69 95 163 123 210 27 47 57 99 67 115 23
41 81 141 102 175 24 40 1483 2541 1493 2560 2 3 -375 5 -838 5 l-841 0 -79
-135 c-43 -74 -91 -156 -105 -181 -136 -238 -368 -629 -374 -629 -3 0 -42 62
-86 138 -80 138 -262 450 -399 685 l-75 128 -835 -3 c-459 -1 -836 -4 -839 -7z"/>
</g>
</svg>
